<?xml version="1.0" standalone="no"?>
<!DOCTYPE svg PUBLIC "-//W3C//DTD SVG 20010904//EN"
 "http://www.w3.org/TR/2001/REC-SVG-20010904/DTD/svg10.dtd">
<svg version="1.0" xmlns="http://www.w3.org/2000/svg"
 width="625.000000pt" height="146.000000pt" viewBox="0 0 625.000000 146.000000"
 preserveAspectRatio="xMidYMid meet">

<g transform="translate(0.000000,146.000000) scale(0.100000,-0.100000)"
fill="#000000" stroke="none">
<path d="M2532 1408 c-7 -7 -12 -43 -12 -90 0 -70 -2 -78 -19 -78 -10 0 -24
-6 -30 -14 -21 -25 -70 -30 -91 -11 -14 13 -28 16 -52 11 -44 -8 -136 -54
-185 -94 -23 -18 -50 -32 -61 -32 -12 0 -24 -4 -27 -10 -10 -17 -69 -11 -95
10 -33 26 -52 25 -80 -5 -46 -49 -127 -95 -187 -106 -48 -9 -66 -18 -103 -55
-25 -24 -53 -44 -62 -44 -9 0 -19 -4 -23 -9 -7 -12 -64 -41 -79 -41 -6 0 -28
-13 -48 -30 -43 -35 -133 -51 -173 -30 -18 10 -54 11 -157 4 l-133 -9 -3 -41
c-4 -59 -30 -80 -95 -77 -46 2 -55 -1 -84 -29 -18 -18 -33 -37 -33 -43 0 -6
-11 -22 -25 -35 -14 -13 -25 -32 -25 -42 0 -10 -6 -18 -14 -18 -7 0 -33 -17
-57 -38 -24 -22 -55 -42 -69 -45 -14 -3 -61 -40 -104 -81 l-78 -75 -46 6 c-46
5 -48 4 -92 -43 -25 -27 -66 -67 -92 -89 -36 -31 -47 -48 -50 -75 -2 -29 0
-35 17 -35 13 0 21 8 23 24 2 12 20 37 40 54 20 17 57 53 82 79 44 45 46 47
91 41 l47 -5 77 76 c45 43 86 76 98 76 11 0 39 18 63 40 24 22 52 40 62 40 24
0 42 19 42 45 0 12 14 34 30 50 17 16 30 33 30 39 0 5 7 17 16 27 13 14 20 16
34 7 14 -9 29 -8 62 2 53 17 87 54 88 98 l0 32 63 2 c34 1 85 2 112 3 31 1 62
-5 82 -16 32 -18 97 -16 109 2 3 5 15 9 27 9 12 1 38 14 57 30 19 17 39 30 46
30 15 0 72 29 79 41 4 5 14 9 24 9 9 0 37 21 61 46 41 42 48 45 82 40 20 -3
39 -2 42 3 3 5 25 19 48 31 24 12 65 40 91 62 47 39 48 40 74 23 21 -14 40
-16 95 -12 60 5 74 10 114 43 84 69 192 112 210 83 9 -16 100 -6 122 14 9 8
28 17 42 19 24 3 25 7 28 76 l3 72 67 1 c37 0 88 4 115 8 l47 8 0 -95 c0 -85
2 -98 23 -120 20 -21 22 -32 19 -106 -2 -71 0 -86 18 -108 12 -16 16 -29 10
-33 -14 -9 -12 -58 4 -89 17 -33 55 -63 86 -68 15 -2 30 -14 38 -30 7 -15 28
-35 46 -43 19 -9 36 -25 39 -36 4 -15 14 -19 44 -19 21 0 45 6 51 12 7 7 48
18 91 24 53 8 90 19 111 34 23 17 46 23 79 23 25 0 53 5 61 12 8 7 42 16 76
20 49 5 63 3 73 -9 16 -19 42 -21 58 -5 6 6 43 11 82 11 51 0 83 6 113 20 33
16 54 19 107 14 144 -12 186 -19 197 -34 15 -21 96 -41 165 -42 31 0 70 -7 85
-15 16 -8 41 -15 55 -15 16 0 33 -10 47 -30 15 -19 31 -30 47 -30 14 0 33 -4
43 -10 31 -17 146 -38 220 -39 68 -2 75 -4 100 -33 75 -86 92 -96 183 -113 48
-9 98 -13 112 -10 15 4 38 -1 63 -16 76 -43 89 -49 116 -49 19 0 31 -8 40 -28
14 -28 48 -38 163 -47 65 -5 103 -16 121 -36 11 -13 31 -19 58 -19 23 -1 59
-7 81 -15 22 -8 52 -15 68 -15 16 0 27 -5 27 -13 0 -24 46 -58 96 -70 42 -11
51 -17 69 -54 14 -32 26 -43 42 -43 25 0 24 3 -8 77 -19 42 -32 50 -111 67
-19 4 -28 13 -28 26 0 24 -36 50 -70 50 -14 0 -50 9 -80 20 -32 12 -66 18 -82
15 -20 -5 -29 -1 -38 14 -6 12 -19 21 -30 21 -10 0 -29 4 -42 9 -13 6 -62 13
-110 16 -66 5 -88 10 -88 21 0 27 -39 54 -77 54 -22 0 -49 9 -63 20 -14 11
-30 20 -36 20 -7 0 -14 9 -17 20 -5 21 -41 28 -52 10 -8 -13 -68 -13 -138 1
-51 11 -62 18 -112 74 l-56 62 -97 7 c-99 7 -190 23 -206 38 -6 4 -22 8 -36 8
-18 0 -34 10 -48 30 -16 20 -31 30 -50 30 -15 0 -40 7 -56 15 -15 8 -51 15
-79 15 -76 0 -155 21 -160 42 -4 15 -16 18 -60 18 -31 0 -59 5 -62 10 -3 6
-49 10 -101 10 -75 0 -104 -4 -137 -20 -35 -17 -46 -19 -64 -9 -17 9 -29 10
-45 1 -34 -16 -97 -22 -104 -10 -8 13 -164 2 -178 -12 -6 -6 -32 -10 -59 -10
-36 0 -57 -6 -81 -25 -21 -16 -46 -25 -69 -25 -20 0 -39 -4 -42 -10 -3 -5 -22
-10 -41 -10 -19 0 -43 -5 -54 -12 -15 -10 -22 -9 -37 3 -10 9 -33 22 -50 30
-18 8 -33 19 -33 25 0 18 -45 54 -68 54 -12 0 -32 14 -46 33 -30 39 -32 50
-11 67 22 18 18 43 -10 68 -27 24 -32 60 -13 91 15 24 -6 102 -33 127 -16 15
-19 32 -19 119 0 65 -4 105 -12 113 -17 17 -77 15 -112 -3 -38 -20 -122 -20
-130 0 -7 18 -28 19 -44 3z"/>
</g>
</svg>
